# Blender v2.77 (sub 0) OBJ File: ''
# www.blender.org
mtllib arrow_01.mtl
o Arrow
v 0.937878 0.015607 -0.005706
v 0.937878 -0.000000 -0.012150
v 0.937878 0.015607 0.005705
v 0.937878 0.000000 0.012150
v 1.011283 0.012528 0.003129
v 1.011283 0.012528 -0.003130
v 0.937878 -0.015607 0.005705
v 0.937878 -0.015607 -0.005706
v 1.011283 -0.012528 0.003129
v 1.011283 -0.012528 -0.003130
v 0.974094 -0.058077 0.000000
v 0.975217 -0.047161 0.003129
v 0.975217 -0.047161 -0.003130
v 1.009879 -0.030589 0.003129
v 1.009879 -0.030589 -0.003130
v 1.015864 -0.021842 -0.003130
v 1.015864 -0.021842 0.003129
v 1.053915 -0.035281 0.003129
v 1.053915 -0.035281 -0.003130
v 1.053915 0.000000 0.003129
v 1.053915 -0.000000 -0.003130
v 1.011283 0.000000 0.012150
v 1.015864 0.021842 0.003129
v 1.053915 0.035281 0.003129
v 1.009879 0.030589 0.003129
v 1.015864 0.021842 -0.003130
v 1.106182 0.000000 0.003129
v 1.106182 -0.022969 0.003129
v 1.168973 0.000000 0.003129
v 1.106182 0.022969 0.003129
v 0.975217 0.047161 0.003129
v 1.009879 0.030589 -0.003130
v 0.974094 0.058077 0.000000
v 0.975217 0.047161 -0.003130
v 1.053915 0.035281 -0.003130
v 1.106182 -0.000000 -0.003130
v 1.106182 0.022969 -0.003130
v 1.168973 -0.000000 -0.003130
v 1.106182 -0.022969 -0.003130
v 1.011283 -0.000000 -0.012150
v 1.053915 0.044814 0.000000
v 1.106182 0.031425 0.000000
v 1.163252 0.011323 0.000000
v 1.181494 0.000000 0.000000
v 1.053915 -0.044814 0.000000
v 1.106182 -0.031426 0.000000
v 1.163252 -0.011323 0.000000
v -0.864730 0.008521 0.005160
v -0.864730 -0.000037 0.010711
v 0.014922 0.008520 0.005160
v 0.014922 -0.000037 0.010711
v -0.864730 -0.008594 0.005160
v 0.014922 -0.008595 0.005160
v 0.014922 -0.008595 -0.003940
v -0.864730 -0.008594 -0.003940
v -0.864730 -0.000037 -0.009490
v 0.014922 -0.000037 -0.009491
v -0.864730 0.008521 -0.003940
v 0.014922 0.008520 -0.003940
v 0.480748 0.008520 0.005160
v 0.480748 -0.000037 0.010711
v 0.959973 0.008520 0.005160
v 0.959973 -0.000037 0.010711
v 0.480748 -0.008595 0.005160
v 0.959973 -0.008595 0.005160
v 0.480748 -0.008595 -0.003940
v 0.959973 -0.008595 -0.003940
v 0.480748 -0.000037 -0.009491
v 0.959973 -0.000037 -0.009491
v 0.480748 0.008520 -0.003940
v 0.959973 0.008520 -0.003940
v -0.894650 -0.005973 -0.000000
v -0.894650 -0.003000 0.005150
v -0.894650 -0.000027 -0.000000
v -0.894650 -0.003000 -0.005149
v -0.894650 0.002947 -0.005149
v -0.894650 0.005920 -0.000000
v -0.894650 0.002947 0.005150
v -0.781559 0.019932 -0.010997
v -0.781559 0.000095 0.001242
v -0.796438 0.000095 0.001242
v -0.755148 0.000095 0.001242
v -0.755148 0.028377 -0.016206
v -0.574658 0.028836 -0.016490
v -0.715696 0.044264 -0.026008
v -0.574658 0.000095 0.001242
v -0.550941 0.018365 -0.010030
v -0.550941 0.000095 0.001241
v -0.524240 0.007569 -0.003370
v -0.524240 0.000095 0.001242
v -0.781559 0.020430 -0.010190
v -0.796438 0.000592 0.002048
v -0.781559 0.000592 0.002048
v -0.755148 0.000592 0.002048
v -0.755148 0.028875 -0.015400
v -0.574658 0.000592 0.002048
v -0.715696 0.044762 -0.025201
v -0.574658 0.029333 -0.015683
v -0.550941 0.018863 -0.009223
v -0.550941 0.000592 0.002048
v -0.524240 0.008067 -0.002563
v -0.524240 0.000592 0.002048
v -0.781559 0.001208 0.029093
v -0.781559 0.000929 0.005786
v -0.796437 0.000929 0.005786
v -0.755148 0.000929 0.005786
v -0.755148 0.001327 0.039015
v -0.574658 0.001333 0.039554
v -0.715696 0.001550 0.057681
v -0.574658 0.000929 0.005786
v -0.550941 0.001186 0.027252
v -0.550941 0.000929 0.005786
v -0.524240 0.001034 0.014568
v -0.524240 0.000929 0.005786
v -0.781559 0.000260 0.029105
v -0.796438 -0.000019 0.005797
v -0.781559 -0.000019 0.005797
v -0.755148 -0.000019 0.005797
v -0.755148 0.000379 0.039027
v -0.574658 -0.000019 0.005797
v -0.715696 0.000602 0.057692
v -0.574658 0.000385 0.039566
v -0.550941 0.000238 0.027263
v -0.550941 -0.000019 0.005797
v -0.524240 0.000086 0.014580
v -0.524240 -0.000019 0.005797
v -0.781559 -0.018871 -0.011395
v -0.781559 -0.000221 0.002585
v -0.796438 -0.000221 0.002585
v -0.755148 -0.000221 0.002585
v -0.755148 -0.026811 -0.017347
v -0.574658 -0.027243 -0.017670
v -0.715696 -0.041748 -0.028543
v -0.574658 -0.000221 0.002585
v -0.550941 -0.017398 -0.010291
v -0.550941 -0.000221 0.002585
v -0.524240 -0.007248 -0.002683
v -0.524240 -0.000221 0.002585
v -0.781559 -0.018303 -0.012154
v -0.796438 0.000348 0.001827
v -0.781559 0.000348 0.001827
v -0.755148 0.000348 0.001827
v -0.755148 -0.026242 -0.018105
v -0.574658 0.000348 0.001827
v -0.715696 -0.041179 -0.029301
v -0.574658 -0.026674 -0.018429
v -0.550941 -0.016829 -0.011049
v -0.550941 0.000348 0.001827
v -0.524240 -0.006680 -0.003441
v -0.524240 0.000348 0.001827
v -0.875013 -0.003151 -0.005411
v -0.875013 0.003098 -0.005411
v -0.864730 -0.004614 -0.007946
v -0.864730 0.004561 -0.007946
v -0.875013 0.006222 -0.000000
v -0.864730 0.009148 -0.000000
v -0.875013 0.003098 0.005411
v -0.864730 0.004561 0.007946
v -0.875013 -0.003151 0.005411
v -0.864730 -0.004614 0.007946
v -0.875013 -0.006275 -0.000000
v -0.864730 -0.009202 -0.000000
vt 0.989264 0.133280
vt 0.989264 0.152320
vt 0.989264 0.133280
vt 0.989264 0.152320
vt 0.838368 0.136688
vt 0.838368 0.136688
vt 0.989264 0.171360
vt 0.989264 0.171360
vt 0.838368 0.168432
vt 0.838368 0.168432
vt 0.923344 0.249984
vt 0.921392 0.240704
vt 0.921392 0.240704
vt 0.841296 0.220192
vt 0.841296 0.220192
vt 0.830080 0.195776
vt 0.830080 0.195776
vt 0.758288 0.216768
vt 0.758288 0.216768
vt 0.758288 0.152320
vt 0.758288 0.152320
vt 0.846192 0.152320
vt 0.830080 0.109344
vt 0.758288 0.085904
vt 0.841296 0.086880
vt 0.830080 0.109344
vt 0.656720 0.152800
vt 0.656720 0.196272
vt 0.535632 0.153776
vt 0.656720 0.108864
vt 0.925296 0.057104
vt 0.841296 0.086880
vt 0.927728 0.043920
vt 0.925296 0.057104
vt 0.758288 0.085904
vt 0.656720 0.152800
vt 0.656720 0.108864
vt 0.535632 0.153776
vt 0.656720 0.196272
vt 0.846192 0.152320
vt 0.758288 0.064432
vt 0.656240 0.086880
vt 0.547344 0.129856
vt 0.500960 0.153776
vt 0.758288 0.234352
vt 0.656240 0.214816
vt 0.547344 0.177712
vt 0.005376 1.541520
vt 0.036624 1.541520
vt 0.005376 0.003872
vt 0.036624 0.003872
vt 0.067872 1.541520
vt 0.067872 0.003872
vt 0.130864 0.003872
vt 0.130864 1.541520
vt 0.162112 1.541520
vt 0.162112 0.003872
vt 0.193360 1.541520
vt 0.193360 0.003872
vt 0.245616 0.003872
vt 0.245616 1.541520
vt 0.075680 0.484848
vt 0.088864 0.478496
vt 0.102048 0.484848
vt 0.102048 0.510720
vt 0.075680 0.510720
vt 0.088864 0.517072
vt 0.255376 1.541520
vt 0.286624 1.541520
vt 0.255376 0.876944
vt 0.286624 0.876944
vt 0.255376 0.008272
vt 0.317888 1.541520
vt 0.286624 0.008272
vt 0.317888 0.876944
vt 0.317888 0.008272
vt 0.380384 0.876944
vt 0.380384 1.541520
vt 0.380384 0.008272
vt 0.411632 1.541520
vt 0.411632 0.876944
vt 0.411632 0.008272
vt 0.442880 1.541520
vt 0.442880 0.876944
vt 0.442880 0.008272
vt 0.495136 0.876944
vt 0.495136 1.541520
vt 0.495136 0.008272
vt 1.802304 0.121072
vt 1.776416 0.121552
vt 1.725632 0.122048
vt 1.674848 0.123024
vt 1.648480 0.123504
vt 1.700240 0.122528
vt 1.725632 0.122048
vt 1.750544 0.122048
vt 0.839376 0.960944
vt 0.765648 0.960944
vt 0.765648 0.997552
vt 0.765648 0.895504
vt 0.871120 0.895504
vt 0.873072 0.449200
vt 0.930688 0.797840
vt 0.765648 0.449200
vt 0.833520 0.390608
vt 0.765648 0.390608
vt 0.793488 0.324688
vt 0.765648 0.324688
vt 0.841328 0.960944
vt 0.767120 0.997552
vt 0.767120 0.960944
vt 0.767120 0.895504
vt 0.873072 0.895504
vt 0.767120 0.449200
vt 0.932640 0.797840
vt 0.874544 0.449200
vt 0.835472 0.390608
vt 0.767120 0.390608
vt 0.795440 0.324688
vt 0.767120 0.324688
vt 0.839872 0.959952
vt 0.766144 0.959952
vt 0.766144 0.996576
vt 0.766144 0.894528
vt 0.871616 0.894528
vt 0.873072 0.448720
vt 0.930688 0.796864
vt 0.766144 0.448720
vt 0.834016 0.390112
vt 0.766144 0.390112
vt 0.793968 0.324192
vt 0.766144 0.324192
vt 0.839872 0.959952
vt 0.766144 0.996576
vt 0.766144 0.959952
vt 0.766144 0.894528
vt 0.871616 0.894528
vt 0.766144 0.448720
vt 0.930688 0.796864
vt 0.873072 0.448720
vt 0.834016 0.390112
vt 0.766144 0.390112
vt 0.793968 0.324192
vt 0.766144 0.324192
vt 0.694352 0.960944
vt 0.764176 0.960944
vt 0.764176 0.997552
vt 0.764176 0.895504
vt 0.665056 0.895504
vt 0.663104 0.449200
vt 0.608912 0.797840
vt 0.764176 0.449200
vt 0.700224 0.390608
vt 0.764176 0.390608
vt 0.737808 0.324688
vt 0.764176 0.324688
vt 0.696800 0.960944
vt 0.766624 0.997552
vt 0.766624 0.960944
vt 0.766624 0.895504
vt 0.667008 0.895504
vt 0.766624 0.449200
vt 0.611344 0.797840
vt 0.665552 0.449200
vt 0.702176 0.390608
vt 0.766624 0.390608
vt 0.740256 0.324688
vt 0.766624 0.324688
vt 1.675344 0.166480
vt 1.701216 0.165984
vt 1.675840 0.188944
vt 1.701216 0.188944
vt 1.726128 0.165504
vt 1.726608 0.188448
vt 1.751520 0.165008
vt 1.752000 0.187968
vt 1.776912 0.164528
vt 1.777392 0.187472
vt 1.803280 0.164032
vt 1.828176 0.120576
vt 1.803280 0.186992
vt 1.829152 0.164032
vt 1.829152 0.186496
vn -0.580400 0.675900 -0.454200
vn -0.613600 0.000000 -0.789600
vn -0.580400 0.676000 0.454200
vn -0.613600 0.000000 0.789600
vn -0.197800 0.707800 0.678200
vn -0.197800 0.707800 -0.678200
vn -0.580400 -0.676000 0.454200
vn -0.580400 -0.675900 -0.454200
vn -0.197800 -0.707800 0.678200
vn -0.197800 -0.707800 -0.678200
vn -0.535900 -0.844300 0.000000
vn -0.635500 0.351100 0.687700
vn -0.635500 0.351000 -0.687700
vn -0.414800 0.484200 0.770400
vn -0.414800 0.484200 -0.770400
vn -0.541300 0.038800 -0.839900
vn -0.541300 0.038800 0.839900
vn 0.033900 -0.162600 0.986100
vn 0.033900 -0.162700 -0.986100
vn 0.019000 0.000000 0.999800
vn 0.019000 -0.000000 -0.999800
vn 0.100300 0.000000 0.995000
vn -0.541300 -0.038800 0.839900
vn 0.033900 0.162600 0.986100
vn -0.414800 -0.484200 0.770400
vn -0.541300 -0.038800 -0.839900
vn -0.000000 0.000000 1.000000
vn 0.055100 -0.181300 0.981900
vn 0.183400 -0.000000 0.983000
vn 0.055100 0.181300 0.981900
vn -0.635500 -0.351100 0.687700
vn -0.414800 -0.484200 -0.770400
vn -0.535900 0.844300 0.000000
vn -0.635500 -0.351000 -0.687700
vn 0.033900 0.162700 -0.986100
vn 0.000000 -0.000000 -1.000000
vn 0.055100 0.181300 -0.981900
vn 0.183400 0.000000 -0.983000
vn 0.055100 -0.181300 -0.981900
vn 0.100300 0.000000 -0.995000
vn 0.193800 0.981000 0.000000
vn 0.273800 0.961800 0.000100
vn 0.388700 0.921300 0.000100
vn 1.000000 -0.000000 0.000000
vn 0.193800 -0.981000 0.000000
vn 0.273800 -0.961800 0.000100
vn 0.388700 -0.921300 0.000100
vn -0.613800 0.693700 0.376900
vn -0.602700 -0.000000 0.798000
vn 0.000000 0.878700 0.477400
vn -0.613800 -0.693700 0.376900
vn -0.000000 -0.878700 0.477400
vn -0.000000 -0.878700 -0.477400
vn -0.613800 -0.693700 -0.376900
vn -0.602700 -0.000000 -0.798000
vn -0.613800 0.693700 -0.376900
vn 0.000000 0.878700 -0.477400
vn -0.615800 -0.787900 -0.000000
vn -0.615800 -0.394000 0.682400
vn -1.000000 -0.000000 0.000000
vn -0.615800 -0.394000 -0.682400
vn -0.615800 0.394000 -0.682400
vn -0.615800 0.787900 -0.000000
vn -0.615800 0.394000 0.682400
vn 0.000000 -0.525100 -0.851100
vn 0.000000 -0.525100 -0.851000
vn 0.000000 0.525000 0.851100
vn -0.000000 0.999900 -0.012000
vn 0.000000 -0.999900 0.012000
vn 0.000000 -0.599800 0.800200
vn 0.000000 -0.599800 0.800100
vn 0.000000 0.599800 -0.800200
vn 0.000000 0.599800 -0.800100
vn -0.152200 -0.494200 -0.855900
vn -0.152200 0.494200 -0.855900
vn -0.273800 -0.480900 -0.833000
vn -0.273700 0.480900 -0.832900
vn -0.152200 0.988400 0.000000
vn -0.273700 0.961800 0.000000
vn -0.152200 0.494200 0.855900
vn -0.273800 0.480900 0.832900
vn -0.152200 -0.494200 0.855900
vn -0.273800 -0.480900 0.833000
vn -0.152200 -0.988300 0.000000
vn -0.273800 -0.961800 0.000000
usemtl arrow
s 1
f 1/1/1 2/2/2 3/3/3
f 3/3/3 2/2/2 4/4/4
f 5/5/5 1/1/1 3/3/3
f 1/1/1 5/5/5 6/6/6
f 7/7/7 4/4/4 8/8/8
f 8/8/8 4/4/4 2/2/2
f 9/9/9 7/7/7 10/10/10
f 10/10/10 7/7/7 8/8/8
f 11/11/11 12/12/12 13/13/13
f 14/14/14 13/13/13 12/12/12
f 15/15/15 13/13/13 14/14/14
f 16/16/16 15/15/15 17/17/17
f 17/17/17 15/15/15 14/14/14
f 14/14/14 12/12/12 18/18/18
f 14/14/14 18/18/18 17/17/17
f 15/15/15 19/19/19 13/13/13
f 19/19/19 15/15/15 16/16/16
f 20/20/20 17/17/17 18/18/18
f 16/16/16 21/21/21 19/19/19
f 20/20/20 9/9/9 17/17/17
f 10/10/10 21/21/21 16/16/16
f 9/9/9 16/16/16 17/17/17
f 10/10/10 16/16/16 9/9/9
f 9/9/9 4/4/4 7/7/7
f 22/22/22 4/4/4 9/9/9
f 20/20/20 22/22/22 9/9/9
f 22/22/22 5/5/5 4/4/4
f 4/4/4 5/5/5 3/3/3
f 20/20/20 5/5/5 22/22/22
f 20/20/20 23/23/23 5/5/5
f 24/24/24 25/25/25 23/23/23
f 20/20/20 24/24/24 23/23/23
f 23/23/23 6/6/6 5/5/5
f 26/26/26 6/6/6 23/23/23
f 27/27/27 24/24/24 20/20/20
f 27/27/27 20/20/20 18/18/18
f 27/27/27 18/18/18 28/28/28
f 29/29/29 27/27/27 28/28/28
f 30/30/30 27/27/27 29/29/29
f 27/27/27 30/30/30 24/24/24
f 25/25/25 24/24/24 31/31/31
f 25/25/25 26/26/26 23/23/23
f 32/32/32 26/26/26 25/25/25
f 31/31/31 32/32/32 25/25/25
f 33/33/33 34/34/34 31/31/31
f 34/34/34 32/32/32 31/31/31
f 32/32/32 34/34/34 35/35/35
f 32/32/32 35/35/35 26/26/26
f 26/26/26 35/35/35 21/21/21
f 6/6/6 26/26/26 21/21/21
f 21/21/21 35/35/35 36/36/36
f 35/35/35 37/37/37 36/36/36
f 38/38/38 36/36/36 37/37/37
f 39/39/39 36/36/36 38/38/38
f 39/39/39 19/19/19 36/36/36
f 21/21/21 36/36/36 19/19/19
f 40/40/40 6/6/6 21/21/21
f 40/40/40 21/21/21 10/10/10
f 2/2/2 6/6/6 40/40/40
f 10/10/10 2/2/2 40/40/40
f 1/1/1 6/6/6 2/2/2
f 8/8/8 2/2/2 10/10/10
f 31/31/31 41/41/41 33/33/33
f 24/24/24 41/41/41 31/31/31
f 24/24/24 42/42/42 41/41/41
f 30/30/30 42/42/42 24/24/24
f 30/30/30 43/43/43 42/42/42
f 29/29/29 43/43/43 30/30/30
f 29/29/29 44/44/44 43/43/43
f 41/41/41 34/34/34 33/33/33
f 35/35/35 34/34/34 41/41/41
f 41/41/41 42/42/42 35/35/35
f 35/35/35 42/42/42 37/37/37
f 43/43/43 37/37/37 42/42/42
f 38/38/38 37/37/37 43/43/43
f 44/44/44 38/38/38 43/43/43
f 45/45/45 12/12/12 11/11/11
f 18/18/18 12/12/12 45/45/45
f 46/46/46 18/18/18 45/45/45
f 28/28/28 18/18/18 46/46/46
f 47/47/47 28/28/28 46/46/46
f 29/29/29 28/28/28 47/47/47
f 44/44/44 29/29/29 47/47/47
f 11/11/11 13/13/13 45/45/45
f 45/45/45 13/13/13 19/19/19
f 45/45/45 19/19/19 46/46/46
f 46/46/46 19/19/19 39/39/39
f 39/39/39 47/47/47 46/46/46
f 38/38/38 47/47/47 39/39/39
f 38/38/38 44/44/44 47/47/47
f 48/48/48 49/49/49 50/50/50
f 50/50/50 49/49/49 51/51/27
f 49/49/49 52/52/51 51/51/27
f 51/51/27 52/52/51 53/53/52
f 53/53/52 52/52/51 54/54/53
f 54/54/53 52/52/51 55/55/54
f 55/55/54 56/56/55 54/54/53
f 54/54/53 56/56/55 57/57/36
f 56/56/55 58/58/56 57/57/36
f 57/57/36 58/58/56 59/59/57
f 59/59/57 58/58/56 50/60/50
f 50/60/50 58/58/56 48/61/48
f 52/62/51 49/63/49 48/64/48
f 48/64/48 58/65/56 52/62/51
f 52/62/51 58/65/56 55/66/54
f 58/65/56 56/67/55 55/66/54
f 50/68/50 51/69/27 60/70/50
f 60/70/50 51/69/27 61/71/27
f 60/70/50 61/71/27 62/72/50
f 51/69/27 53/73/52 61/71/27
f 62/72/50 61/71/27 63/74/27
f 61/71/27 64/75/52 63/74/27
f 61/71/27 53/73/52 64/75/52
f 63/74/27 64/75/52 65/76/52
f 64/75/52 53/73/52 66/77/53
f 66/77/53 65/76/52 64/75/52
f 66/77/53 53/73/52 54/78/53
f 67/79/53 65/76/52 66/77/53
f 54/78/53 57/80/36 66/77/53
f 66/77/53 68/81/36 67/79/53
f 66/77/53 57/80/36 68/81/36
f 67/79/53 68/81/36 69/82/36
f 57/80/36 59/83/57 68/81/36
f 68/81/36 70/84/57 69/82/36
f 68/81/36 59/83/57 70/84/57
f 69/82/36 70/84/57 71/85/57
f 70/84/57 59/83/57 60/86/50
f 60/86/50 71/85/57 70/84/57
f 60/86/50 59/83/57 50/87/50
f 62/88/50 71/85/57 60/86/50
f 72/89/58 73/90/59 74/91/60
f 75/92/61 72/93/58 74/91/60
f 76/94/62 75/92/61 74/91/60
f 77/95/63 76/94/62 74/91/60
f 78/96/64 77/95/63 74/91/60
f 73/90/59 78/96/64 74/91/60
f 79/97/65 80/98/65 81/99/65
f 79/97/65 82/100/65 80/98/65
f 83/101/65 82/100/65 79/97/65
f 82/100/65 83/101/65 84/102/65
f 85/103/65 84/102/65 83/101/65
f 86/104/65 82/100/65 84/102/65
f 84/102/65 87/105/65 86/104/65
f 86/104/65 87/105/65 88/106/65
f 89/107/66 88/106/65 87/105/65
f 90/108/66 88/106/65 89/107/66
f 91/109/67 92/110/67 93/111/67
f 94/112/67 91/109/67 93/111/67
f 95/113/67 91/109/67 94/112/67
f 94/112/67 96/114/67 95/113/67
f 95/113/67 96/114/67 97/115/67
f 97/115/67 96/114/67 98/116/67
f 98/116/67 96/114/67 99/117/67
f 99/117/67 96/114/67 100/118/67
f 99/117/67 100/118/67 101/119/67
f 101/119/67 100/118/67 102/120/67
f 103/121/68 104/122/68 105/123/68
f 103/121/68 106/124/68 104/122/68
f 107/125/68 106/124/68 103/121/68
f 106/124/68 107/125/68 108/126/68
f 109/127/68 108/126/68 107/125/68
f 110/128/68 106/124/68 108/126/68
f 108/126/68 111/129/68 110/128/68
f 110/128/68 111/129/68 112/130/68
f 113/131/68 112/130/68 111/129/68
f 114/132/68 112/130/68 113/131/68
f 115/133/69 116/134/69 117/135/69
f 118/136/69 115/133/69 117/135/69
f 119/137/69 115/133/69 118/136/69
f 118/136/69 120/138/69 119/137/69
f 119/137/69 120/138/69 121/139/69
f 121/139/69 120/138/69 122/140/69
f 122/140/69 120/138/69 123/141/69
f 123/141/69 120/138/69 124/142/69
f 123/141/69 124/142/69 125/143/69
f 125/143/69 124/142/69 126/144/69
f 127/145/70 128/146/70 129/147/70
f 127/145/70 130/148/70 128/146/70
f 131/149/70 130/148/70 127/145/70
f 130/148/70 131/149/70 132/150/70
f 133/151/70 132/150/70 131/149/70
f 134/152/70 130/148/70 132/150/70
f 132/150/70 135/153/70 134/152/70
f 134/152/70 135/153/70 136/154/71
f 137/155/71 136/154/71 135/153/70
f 138/156/71 136/154/71 137/155/71
f 139/157/72 140/158/73 141/159/73
f 142/160/72 139/157/72 141/159/73
f 143/161/72 139/157/72 142/160/72
f 142/160/72 144/162/72 143/161/72
f 143/161/72 144/162/72 145/163/72
f 145/163/72 144/162/72 146/164/73
f 146/164/73 144/162/72 147/165/72
f 147/165/72 144/162/72 148/166/72
f 147/165/72 148/166/72 149/167/72
f 149/167/72 148/166/72 150/168/72
f 75/92/61 76/94/62 151/169/74
f 151/169/74 76/94/62 152/170/75
f 151/169/74 152/170/75 153/171/76
f 76/94/62 77/95/63 152/170/75
f 153/171/76 152/170/75 154/172/77
f 152/170/75 77/95/63 155/173/78
f 152/170/75 155/173/78 154/172/77
f 77/95/63 78/96/64 155/173/78
f 154/172/77 155/173/78 156/174/79
f 155/173/78 78/96/64 157/175/80
f 155/173/78 157/175/80 156/174/79
f 78/96/64 73/90/59 157/175/80
f 156/174/79 157/175/80 158/176/81
f 157/175/80 73/90/59 159/177/82
f 157/175/80 159/177/82 158/176/81
f 73/90/59 72/89/58 159/177/82
f 158/176/81 159/177/82 160/178/83
f 159/177/82 72/89/58 161/179/84
f 159/177/82 161/179/84 160/178/83
f 72/89/58 75/180/61 161/179/84
f 160/178/83 161/179/84 162/181/85
f 161/179/84 75/180/61 151/182/74
f 161/179/84 151/182/74 162/181/85
f 162/181/85 151/182/74 153/183/76
