# Blender v2.77 (sub 0) OBJ File: 'Column.obj'
# www.blender.org
mtllib Column.mtl
o Cylinder
v -0.150000 0.870000 0.150000
v -0.150000 0.930000 0.150000
v -0.150000 0.870000 -0.150000
v -0.150000 0.930000 -0.150000
v 0.150000 0.870000 0.150000
v 0.150000 0.930000 0.150000
v 0.150000 0.870000 -0.150000
v 0.150000 0.930000 -0.150000
v 0.000000 -0.000000 -0.100000
v 0.000000 0.880000 -0.100000
v 0.019509 -0.000000 -0.098079
v 0.019509 0.880000 -0.098079
v 0.038268 -0.000000 -0.092388
v 0.038268 0.880000 -0.092388
v 0.055557 -0.000000 -0.083147
v 0.055557 0.880000 -0.083147
v 0.070711 -0.000000 -0.070711
v 0.070711 0.880000 -0.070711
v 0.083147 -0.000000 -0.055557
v 0.083147 0.880000 -0.055557
v 0.092388 -0.000000 -0.038268
v 0.092388 0.880000 -0.038268
v 0.098079 -0.000000 -0.019509
v 0.098079 0.880000 -0.019509
v 0.100000 -0.000000 -0.000000
v 0.100000 0.880000 -0.000000
v 0.098079 -0.000000 0.019509
v 0.098079 0.880000 0.019509
v 0.092388 -0.000000 0.038268
v 0.092388 0.880000 0.038268
v 0.083147 -0.000000 0.055557
v 0.083147 0.880000 0.055557
v 0.070711 -0.000000 0.070711
v 0.070711 0.880000 0.070711
v 0.055557 -0.000000 0.083147
v 0.055557 0.880000 0.083147
v 0.038268 -0.000000 0.092388
v 0.038268 0.880000 0.092388
v 0.019509 -0.000000 0.098079
v 0.019509 0.880000 0.098079
v -0.000000 -0.000000 0.100000
v -0.000000 0.880000 0.100000
v -0.019509 -0.000000 0.098079
v -0.019509 0.880000 0.098079
v -0.038268 -0.000000 0.092388
v -0.038268 0.880000 0.092388
v -0.055557 -0.000000 0.083147
v -0.055557 0.880000 0.083147
v -0.070711 -0.000000 0.070711
v -0.070711 0.880000 0.070711
v -0.083147 -0.000000 0.055557
v -0.083147 0.880000 0.055557
v -0.092388 -0.000000 0.038268
v -0.092388 0.880000 0.038268
v -0.098079 -0.000000 0.019509
v -0.098079 0.880000 0.019509
v -0.100000 -0.000000 -0.000000
v -0.100000 0.880000 -0.000000
v -0.098079 -0.000000 -0.019509
v -0.098079 0.880000 -0.019509
v -0.092388 -0.000000 -0.038268
v -0.092388 0.880000 -0.038268
v -0.083147 -0.000000 -0.055557
v -0.083147 0.880000 -0.055557
v -0.070711 -0.000000 -0.070711
v -0.070711 0.880000 -0.070711
v -0.055557 -0.000000 -0.083147
v -0.055557 0.880000 -0.083147
v -0.038268 -0.000000 -0.092388
v -0.038268 0.880000 -0.092388
v -0.019509 -0.000000 -0.098079
v -0.019509 0.880000 -0.098079
v -0.150000 -0.010000 0.150000
v -0.150000 0.050000 0.150000
v -0.150000 -0.010000 -0.150000
v -0.150000 0.050000 -0.150000
v 0.150000 -0.010000 0.150000
v 0.150000 0.050000 0.150000
v 0.150000 -0.010000 -0.150000
v 0.150000 0.050000 -0.150000
vt 0.2485 0.8009
vt 0.6207 0.8009
vt 0.6207 0.8178
vt 0.2485 0.8178
vt 0.2485 0.7470
vt 0.6207 0.7470
vt 0.6207 0.7640
vt 0.2485 0.7640
vt 0.6207 0.8895
vt 0.2485 0.8895
vt 0.2485 0.8726
vt 0.6207 0.8726
vt 0.6207 0.8716
vt 0.2485 0.8716
vt 0.2485 0.8547
vt 0.6207 0.8547
vt 0.3738 0.3728
vt 0.3738 0.0005
vt 0.7460 0.0005
vt 0.7460 0.3728
vt 0.7460 0.3738
vt 0.7460 0.7460
vt 0.3738 0.7460
vt 0.3738 0.3738
vt 0.9741 0.7469
vt 0.9741 0.9950
vt 0.9498 0.9950
vt 0.9498 0.7469
vt 0.6714 0.7470
vt 0.6714 0.9952
vt 0.6471 0.9952
vt 0.6471 0.7470
vt 0.8474 0.7469
vt 0.8474 0.9950
vt 0.8231 0.9950
vt 0.8231 0.7469
vt 0.7221 0.7470
vt 0.7221 0.9952
vt 0.6978 0.9952
vt 0.6978 0.7470
vt 0.9741 0.4977
vt 0.9741 0.7458
vt 0.9498 0.7458
vt 0.9498 0.4977
vt 0.9488 0.2485
vt 0.9488 0.4967
vt 0.9245 0.4967
vt 0.9245 0.2485
vt 0.8728 0.4977
vt 0.8728 0.7458
vt 0.8484 0.7458
vt 0.8484 0.4977
vt 0.7967 0.4977
vt 0.7967 0.7458
vt 0.7724 0.7458
vt 0.7724 0.4977
vt 0.7967 0.2485
vt 0.7967 0.4967
vt 0.7724 0.4967
vt 0.7724 0.2485
vt 0.8728 0.2485
vt 0.8728 0.4967
vt 0.8484 0.4967
vt 0.8484 0.2485
vt 0.8474 0.4977
vt 0.8474 0.7458
vt 0.8231 0.7458
vt 0.8231 0.4977
vt 0.8981 0.4977
vt 0.8981 0.7458
vt 0.8738 0.7458
vt 0.8738 0.4977
vt 0.8981 0.2485
vt 0.8981 0.4967
vt 0.8738 0.4967
vt 0.8738 0.2485
vt 0.9235 0.4977
vt 0.9235 0.7458
vt 0.8991 0.7458
vt 0.8991 0.4977
vt 0.8221 0.2485
vt 0.8221 0.4967
vt 0.7977 0.4967
vt 0.7977 0.2485
vt 0.7714 0.2485
vt 0.7714 0.4967
vt 0.7470 0.4967
vt 0.7470 0.2485
vt 0.7714 0.4977
vt 0.7714 0.7458
vt 0.7470 0.7458
vt 0.7470 0.4977
vt 0.8221 0.4977
vt 0.8221 0.7458
vt 0.7977 0.7458
vt 0.7977 0.4977
vt 0.8474 0.2485
vt 0.8474 0.4967
vt 0.8231 0.4967
vt 0.8231 0.2485
vt 0.9235 0.2485
vt 0.9235 0.4967
vt 0.8991 0.4967
vt 0.8991 0.2485
vt 0.8221 0.7469
vt 0.8221 0.9950
vt 0.7977 0.9950
vt 0.7977 0.7469
vt 0.8728 0.7469
vt 0.8728 0.9950
vt 0.8484 0.9950
vt 0.8484 0.7469
vt 0.9235 0.7469
vt 0.9235 0.9950
vt 0.8991 0.9950
vt 0.8991 0.7469
vt 0.9741 0.2485
vt 0.9741 0.4967
vt 0.9498 0.4967
vt 0.9498 0.2485
vt 0.7714 0.7469
vt 0.7714 0.9950
vt 0.7470 0.9950
vt 0.7470 0.7469
vt 0.9488 0.7469
vt 0.9488 0.9950
vt 0.9245 0.9950
vt 0.9245 0.7469
vt 0.9488 0.4977
vt 0.9488 0.7458
vt 0.9245 0.7458
vt 0.9245 0.4977
vt 0.6968 0.7470
vt 0.6968 0.9952
vt 0.6725 0.9952
vt 0.6725 0.7470
vt 0.6461 0.7470
vt 0.6461 0.9952
vt 0.6218 0.9952
vt 0.6218 0.7470
vt 0.8981 0.7469
vt 0.8981 0.9950
vt 0.8738 0.9950
vt 0.8738 0.7469
vt 0.8827 0.2475
vt 0.8584 0.2475
vt 0.8345 0.2427
vt 0.8120 0.2334
vt 0.7918 0.2199
vt 0.7746 0.2027
vt 0.7611 0.1825
vt 0.7518 0.1600
vt 0.7470 0.1362
vt 0.7470 0.1118
vt 0.7518 0.0880
vt 0.7611 0.0655
vt 0.7746 0.0453
vt 0.7918 0.0281
vt 0.8120 0.0146
vt 0.8345 0.0053
vt 0.8584 0.0005
vt 0.8827 0.0005
vt 0.9065 0.0053
vt 0.9290 0.0146
vt 0.9492 0.0281
vt 0.9664 0.0453
vt 0.9800 0.0655
vt 0.9893 0.0880
vt 0.9940 0.1118
vt 0.9940 0.1362
vt 0.9893 0.1600
vt 0.9800 0.1825
vt 0.9664 0.2027
vt 0.9492 0.2199
vt 0.9290 0.2334
vt 0.9065 0.2427
vt 0.7967 0.7469
vt 0.7967 0.9950
vt 0.7724 0.9950
vt 0.7724 0.7469
vt 0.9995 0.2485
vt 0.9995 0.4967
vt 0.9752 0.4967
vt 0.9752 0.2485
vt 0.1118 0.7470
vt 0.1362 0.7470
vt 0.1600 0.7518
vt 0.1825 0.7611
vt 0.2027 0.7746
vt 0.2199 0.7918
vt 0.2334 0.8120
vt 0.2427 0.8345
vt 0.2475 0.8584
vt 0.2475 0.8827
vt 0.2427 0.9065
vt 0.2334 0.9290
vt 0.2199 0.9492
vt 0.2027 0.9664
vt 0.1825 0.9800
vt 0.1600 0.9893
vt 0.1362 0.9940
vt 0.1118 0.9940
vt 0.0880 0.9893
vt 0.0655 0.9800
vt 0.0453 0.9664
vt 0.0281 0.9492
vt 0.0146 0.9290
vt 0.0053 0.9065
vt 0.0005 0.8827
vt 0.0005 0.8584
vt 0.0053 0.8345
vt 0.0146 0.8120
vt 0.0281 0.7918
vt 0.0453 0.7746
vt 0.0655 0.7611
vt 0.0880 0.7518
vt 0.2485 0.7650
vt 0.6207 0.7650
vt 0.6207 0.7819
vt 0.2485 0.7819
vt 0.2485 0.7829
vt 0.6207 0.7829
vt 0.6207 0.7998
vt 0.2485 0.7998
vt 0.6207 0.8537
vt 0.2485 0.8537
vt 0.2485 0.8367
vt 0.6207 0.8367
vt 0.6207 0.8357
vt 0.2485 0.8357
vt 0.2485 0.8188
vt 0.6207 0.8188
vt 0.0005 0.3728
vt 0.0005 0.0005
vt 0.3728 0.0005
vt 0.3728 0.3728
vt 0.3728 0.3738
vt 0.3728 0.7460
vt 0.0005 0.7460
vt 0.0005 0.3738
vn -1.0000 0.0000 0.0000
vn 0.0000 0.0000 -1.0000
vn 1.0000 0.0000 0.0000
vn 0.0000 0.0000 1.0000
vn 0.0000 -1.0000 0.0000
vn 0.0000 1.0000 0.0000
vn 0.0980 0.0000 -0.9952
vn 0.2903 0.0000 -0.9569
vn 0.4714 0.0000 -0.8819
vn 0.6344 0.0000 -0.7730
vn 0.7730 0.0000 -0.6344
vn 0.8819 0.0000 -0.4714
vn 0.9569 0.0000 -0.2903
vn 0.9952 0.0000 -0.0980
vn 0.9952 0.0000 0.0980
vn 0.9569 0.0000 0.2903
vn 0.8819 0.0000 0.4714
vn 0.7730 0.0000 0.6344
vn 0.6344 0.0000 0.7730
vn 0.4714 0.0000 0.8819
vn 0.2903 0.0000 0.9569
vn 0.0980 0.0000 0.9952
vn -0.0980 0.0000 0.9952
vn -0.2903 0.0000 0.9569
vn -0.4714 0.0000 0.8819
vn -0.6344 0.0000 0.7730
vn -0.7730 0.0000 0.6344
vn -0.8819 0.0000 0.4714
vn -0.9569 0.0000 0.2903
vn -0.9952 0.0000 0.0980
vn -0.9952 0.0000 -0.0980
vn -0.9569 0.0000 -0.2903
vn -0.8819 0.0000 -0.4714
vn -0.7730 0.0000 -0.6344
vn -0.6344 0.0000 -0.7730
vn -0.4714 0.0000 -0.8819
vn -0.2903 0.0000 -0.9569
vn -0.0980 0.0000 -0.9952
usemtl None
s off
f 2/1/1 4/2/1 3/3/1 1/4/1
f 4/5/2 8/6/2 7/7/2 3/8/2
f 8/9/3 6/10/3 5/11/3 7/12/3
f 6/13/4 2/14/4 1/15/4 5/16/4
f 1/17/5 3/18/5 7/19/5 5/20/5
f 6/21/6 8/22/6 4/23/6 2/24/6
f 9/25/7 10/26/7 12/27/7 11/28/7
f 11/29/8 12/30/8 14/31/8 13/32/8
f 13/33/9 14/34/9 16/35/9 15/36/9
f 15/37/10 16/38/10 18/39/10 17/40/10
f 17/41/11 18/42/11 20/43/11 19/44/11
f 19/45/12 20/46/12 22/47/12 21/48/12
f 21/49/13 22/50/13 24/51/13 23/52/13
f 23/53/14 24/54/14 26/55/14 25/56/14
f 25/57/15 26/58/15 28/59/15 27/60/15
f 27/61/16 28/62/16 30/63/16 29/64/16
f 29/65/17 30/66/17 32/67/17 31/68/17
f 31/69/18 32/70/18 34/71/18 33/72/18
f 33/73/19 34/74/19 36/75/19 35/76/19
f 35/77/20 36/78/20 38/79/20 37/80/20
f 37/81/21 38/82/21 40/83/21 39/84/21
f 39/85/22 40/86/22 42/87/22 41/88/22
f 41/89/23 42/90/23 44/91/23 43/92/23
f 43/93/24 44/94/24 46/95/24 45/96/24
f 45/97/25 46/98/25 48/99/25 47/100/25
f 47/101/26 48/102/26 50/103/26 49/104/26
f 49/105/27 50/106/27 52/107/27 51/108/27
f 51/109/28 52/110/28 54/111/28 53/112/28
f 53/113/29 54/114/29 56/115/29 55/116/29
f 55/117/30 56/118/30 58/119/30 57/120/30
f 57/121/31 58/122/31 60/123/31 59/124/31
f 59/125/32 60/126/32 62/127/32 61/128/32
f 61/129/33 62/130/33 64/131/33 63/132/33
f 63/133/34 64/134/34 66/135/34 65/136/34
f 65/137/35 66/138/35 68/139/35 67/140/35
f 67/141/36 68/142/36 70/143/36 69/144/36
f 12/145/6 10/146/6 72/147/6 70/148/6 68/149/6 66/150/6 64/151/6 62/152/6 60/153/6 58/154/6 56/155/6 54/156/6 52/157/6 50/158/6 48/159/6 46/160/6 44/161/6 42/162/6 40/163/6 38/164/6 36/165/6 34/166/6 32/167/6 30/168/6 28/169/6 26/170/6 24/171/6 22/172/6 20/173/6 18/174/6 16/175/6 14/176/6
f 69/177/37 70/178/37 72/179/37 71/180/37
f 71/181/38 72/182/38 10/183/38 9/184/38
f 9/185/5 11/186/5 13/187/5 15/188/5 17/189/5 19/190/5 21/191/5 23/192/5 25/193/5 27/194/5 29/195/5 31/196/5 33/197/5 35/198/5 37/199/5 39/200/5 41/201/5 43/202/5 45/203/5 47/204/5 49/205/5 51/206/5 53/207/5 55/208/5 57/209/5 59/210/5 61/211/5 63/212/5 65/213/5 67/214/5 69/215/5 71/216/5
f 74/217/1 76/218/1 75/219/1 73/220/1
f 76/221/2 80/222/2 79/223/2 75/224/2
f 80/225/3 78/226/3 77/227/3 79/228/3
f 78/229/4 74/230/4 73/231/4 77/232/4
f 73/233/5 75/234/5 79/235/5 77/236/5
f 78/237/6 80/238/6 76/239/6 74/240/6
