# Blender v2.77 (sub 0) OBJ File: 'lamp.blend'
# www.blender.org
mtllib Lamp.mtl
o Lantern
v 0.642076 14.088860 -0.660424
v 0.959341 16.409517 -0.958236
v 0.642076 14.088860 -0.560424
v 0.959341 16.409517 -0.858236
v 0.542076 14.088860 -0.660424
v 0.859341 16.409517 -0.958236
v 0.542076 14.088860 -0.560424
v 0.859341 16.409517 -0.858236
v -0.700000 13.900001 0.700000
v -0.700000 14.100000 0.700000
v -0.700000 13.900001 -0.700000
v -0.700000 14.100000 -0.700000
v 0.700000 13.900001 0.700000
v 0.700000 14.100000 0.700000
v 0.700000 13.900001 -0.700000
v 0.700000 14.100000 -0.700000
v -0.640424 14.088860 -0.662076
v -0.938236 16.409517 -0.979341
v -0.540424 14.088860 -0.662076
v -0.838236 16.409517 -0.979341
v -0.640424 14.088860 -0.562076
v -0.938236 16.409517 -0.879341
v -0.540424 14.088860 -0.562076
v -0.838236 16.409517 -0.879341
v -0.642076 14.088860 0.660424
v -0.959341 16.409517 0.958237
v -0.642076 14.088860 0.560424
v -0.959341 16.409517 0.858237
v -0.542076 14.088860 0.660424
v -0.859341 16.409517 0.958237
v -0.542076 14.088860 0.560424
v -0.859341 16.409517 0.858237
v 0.640424 14.088860 0.662076
v 0.938236 16.409517 0.979341
v 0.540424 14.088860 0.662076
v 0.838236 16.409517 0.979341
v 0.640424 14.088860 0.562076
v 0.938236 16.409517 0.879341
v 0.540424 14.088860 0.562076
v 0.838236 16.409517 0.879341
v -1.000000 16.400000 1.000000
v -1.000000 16.600000 1.000000
v -1.000000 16.400000 -1.000000
v -1.000000 16.600000 -1.000000
v 1.000000 16.400000 1.000000
v 1.000000 16.600000 1.000000
v 1.000000 16.400000 -1.000000
v 1.000000 16.600000 -1.000000
v 0.300000 0.000001 -0.300000
v 0.300000 0.000001 0.300000
v -0.300000 0.000001 0.300000
v -0.300000 0.000001 -0.300000
v 0.300000 14.000000 -0.300000
v 0.300000 14.000000 0.300000
v -0.300000 14.000000 0.300000
v -0.300000 14.000000 -0.300000
vt 0.4168 0.3993
vt 0.4323 0.4132
vt 0.4323 0.6309
vt 0.4168 0.6170
vt 0.3362 0.6955
vt 0.3510 0.6809
vt 0.5687 0.6809
vt 0.5539 0.6955
vt 0.6005 0.4329
vt 0.5866 0.4175
vt 0.8043 0.4175
vt 0.8182 0.4329
vt 0.6014 0.5100
vt 0.5866 0.4954
vt 0.8668 0.4954
vt 0.8816 0.5100
vt 0.4329 0.6344
vt 0.4329 0.6136
vt 0.4537 0.6136
vt 0.4537 0.6344
vt 0.4537 0.5708
vt 0.4537 0.5916
vt 0.4329 0.5916
vt 0.4329 0.5708
vt 0.6313 0.7972
vt 0.4613 0.7971
vt 0.4612 0.7317
vt 0.6313 0.7317
vt 0.6313 0.7382
vt 0.4613 0.7382
vt 0.4612 0.7978
vt 0.6313 0.7978
vt 0.4612 0.7281
vt 0.6313 0.7281
vt 0.6313 0.7935
vt 0.4613 0.7935
vt 0.5694 0.6961
vt 0.7394 0.6961
vt 0.7394 0.7616
vt 0.5694 0.7616
vt 0.9997 0.2914
vt 0.7086 0.2914
vt 0.7086 0.0003
vt 0.9997 0.0003
vt 0.7079 0.0003
vt 0.7079 0.2914
vt 0.4168 0.2914
vt 0.4168 0.0003
vt 0.8000 0.6648
vt 0.7862 0.6803
vt 0.5685 0.6803
vt 0.5824 0.6648
vt 0.5866 0.5252
vt 0.6014 0.5106
vt 0.8191 0.5106
vt 0.8043 0.5252
vt 0.4329 0.1810
vt 0.4484 0.1671
vt 0.4484 0.3848
vt 0.4329 0.3986
vt 0.6014 0.4643
vt 0.5866 0.4497
vt 0.8043 0.4497
vt 0.8191 0.4643
vt 0.4329 0.6773
vt 0.4329 0.6565
vt 0.4537 0.6565
vt 0.4537 0.6773
vt 0.4329 0.5922
vt 0.4537 0.5922
vt 0.4537 0.6130
vt 0.4329 0.6130
vt 0.4484 0.6309
vt 0.4329 0.6170
vt 0.4329 0.3993
vt 0.4484 0.4132
vt 0.5687 0.6961
vt 0.5539 0.7107
vt 0.3362 0.7107
vt 0.3510 0.6961
vt 0.8043 0.4336
vt 0.8182 0.4490
vt 0.6005 0.4490
vt 0.5866 0.4336
vt 0.7871 0.6809
vt 0.8019 0.6955
vt 0.5842 0.6955
vt 0.5694 0.6809
vt 0.4537 0.6350
vt 0.4537 0.6558
vt 0.4329 0.6558
vt 0.4329 0.6350
vt 0.4329 0.5487
vt 0.4329 0.5279
vt 0.4537 0.5279
vt 0.4537 0.5487
vt 0.3362 0.6803
vt 0.3501 0.6648
vt 0.5678 0.6648
vt 0.5539 0.6803
vt 0.8191 0.4649
vt 0.8043 0.4795
vt 0.5866 0.4795
vt 0.6014 0.4649
vt 0.4323 0.3848
vt 0.4168 0.3986
vt 0.4168 0.1810
vt 0.4323 0.1671
vt 0.8043 0.4801
vt 0.8191 0.4947
vt 0.6014 0.4947
vt 0.5866 0.4801
vt 0.4537 0.5065
vt 0.4537 0.5273
vt 0.4329 0.5273
vt 0.4329 0.5065
vt 0.4329 0.5493
vt 0.4537 0.5493
vt 0.4537 0.5701
vt 0.4329 0.5701
vt 0.6645 0.7149
vt 0.4613 0.7149
vt 0.4612 0.6489
vt 0.6644 0.6489
vt 0.6645 0.7233
vt 0.4613 0.7233
vt 0.4612 0.7197
vt 0.6644 0.7197
vt 0.4612 0.7155
vt 0.6644 0.7155
vt 0.6645 0.7191
vt 0.4613 0.7191
vt 0.4612 0.7239
vt 0.6644 0.7239
vt 0.6645 0.7899
vt 0.4613 0.7899
vt 0.4162 0.8327
vt 0.0003 0.8327
vt 0.0003 0.4168
vt 0.4162 0.4168
vt 0.4162 0.0003
vt 0.4162 0.4162
vt 0.0003 0.4162
vt 0.0003 0.0003
vt 0.5832 0.2921
vt 0.7079 0.2921
vt 0.7079 0.4168
vt 0.5832 0.4168
vt 0.8333 0.4168
vt 0.7086 0.4168
vt 0.7086 0.2921
vt 0.8333 0.2921
vt 0.0000 0.8787
vt 1.0000 0.8788
vt 1.0000 1.0000
vt 0.0000 1.0000
vt 0.0000 0.0000
vt 1.0000 0.0000
vt 1.0000 0.1213
vt 0.0000 0.1213
vt 0.7079 0.0000
vt 0.7079 1.0000
vt 0.5832 1.0000
vt 0.5832 0.0000
vt 0.2172 1.0000
vt 0.2172 0.0000
vt 0.3420 0.0000
vt 0.3420 1.0000
vn 0.9908 -0.1355 0.0000
vn 0.0000 0.1273 0.9919
vn -0.9908 0.1355 0.0000
vn 0.0000 -0.1273 -0.9919
vn 0.0000 -1.0000 0.0000
vn 0.0000 1.0000 0.0000
vn -1.0000 0.0000 0.0000
vn -0.0000 0.0000 -1.0000
vn 1.0000 0.0000 -0.0000
vn 0.0000 0.0000 1.0000
vn 0.0000 -0.1355 -0.9908
vn 0.9919 0.1273 0.0000
vn 0.0000 0.1355 0.9908
vn -0.9919 -0.1273 0.0000
vn -0.9908 -0.1355 0.0000
vn 0.0000 0.1273 -0.9919
vn 0.9908 0.1355 0.0000
vn 0.0000 -0.1273 0.9919
vn 0.0000 -0.1355 0.9908
vn -0.9919 0.1273 0.0000
vn 0.0000 0.1355 -0.9908
vn 0.9919 -0.1273 0.0000
usemtl Material
s off
f 2/1/1 4/2/1 3/3/1 1/4/1
f 4/5/2 8/6/2 7/7/2 3/8/2
f 8/9/3 6/10/3 5/11/3 7/12/3
f 6/13/4 2/14/4 1/15/4 5/16/4
f 1/17/5 3/18/5 7/19/5 5/20/5
f 6/21/6 8/22/6 4/23/6 2/24/6
f 10/25/7 12/26/7 11/27/7 9/28/7
f 12/29/8 16/30/8 15/31/8 11/32/8
f 16/33/9 14/34/9 13/35/9 15/36/9
f 14/37/10 10/38/10 9/39/10 13/40/10
f 9/41/5 11/42/5 15/43/5 13/44/5
f 14/45/6 16/46/6 12/47/6 10/48/6
f 18/49/11 20/50/11 19/51/11 17/52/11
f 20/53/12 24/54/12 23/55/12 19/56/12
f 24/57/13 22/58/13 21/59/13 23/60/13
f 22/61/14 18/62/14 17/63/14 21/64/14
f 17/65/5 19/66/5 23/67/5 21/68/5
f 22/69/6 24/70/6 20/71/6 18/72/6
f 26/73/15 28/74/15 27/75/15 25/76/15
f 28/77/16 32/78/16 31/79/16 27/80/16
f 32/81/17 30/82/17 29/83/17 31/84/17
f 30/85/18 26/86/18 25/87/18 29/88/18
f 25/89/5 27/90/5 31/91/5 29/92/5
f 30/93/6 32/94/6 28/95/6 26/96/6
f 34/97/19 36/98/19 35/99/19 33/100/19
f 36/101/20 40/102/20 39/103/20 35/104/20
f 40/105/21 38/106/21 37/107/21 39/108/21
f 38/109/22 34/110/22 33/111/22 37/112/22
f 33/113/5 35/114/5 39/115/5 37/116/5
f 38/117/6 40/118/6 36/119/6 34/120/6
f 42/121/7 44/122/7 43/123/7 41/124/7
f 44/125/8 48/126/8 47/127/8 43/128/8
f 48/129/9 46/130/9 45/131/9 47/132/9
f 46/133/10 42/134/10 41/135/10 45/136/10
f 41/137/5 43/138/5 47/139/5 45/140/5
f 46/141/6 48/142/6 44/143/6 42/144/6
f 49/145/5 50/146/5 51/147/5 52/148/5
f 53/149/6 56/150/6 55/151/6 54/152/6
f 49/153/9 53/154/9 54/155/9 50/156/9
f 50/157/10 54/158/10 55/159/10 51/160/10
f 51/161/7 55/162/7 56/163/7 52/164/7
f 53/165/8 49/166/8 52/167/8 56/168/8
